<mxfile host="Electron" modified="2023-05-21T11:47:07.433Z" agent="Mozilla/5.0 (Windows NT 10.0; Win64; x64) AppleWebKit/537.36 (KHTML, like Gecko) draw.io/21.2.8 Chrome/112.0.5615.165 Electron/24.2.0 Safari/537.36" etag="3TK1RDv55Hyk44SFupvE" version="21.2.8" type="device">
  <diagram name="第 1 页" id="oVaQQtsJv8UFXQQw8mg5">
    <mxGraphModel dx="1837" dy="2261" grid="1" gridSize="10" guides="1" tooltips="1" connect="1" arrows="1" fold="1" page="1" pageScale="1" pageWidth="827" pageHeight="1169" math="0" shadow="0">
      <root>
        <mxCell id="0" />
        <mxCell id="1" parent="0" />
        <mxCell id="AfusonKI7kDfvAHBZVMs-3" value="" style="edgeStyle=orthogonalEdgeStyle;rounded=0;orthogonalLoop=1;jettySize=auto;html=1;fontStyle=1;fontSize=20;" parent="1" source="AfusonKI7kDfvAHBZVMs-1" target="AfusonKI7kDfvAHBZVMs-2" edge="1">
          <mxGeometry relative="1" as="geometry" />
        </mxCell>
        <mxCell id="AfusonKI7kDfvAHBZVMs-1" value="main" style="rounded=0;whiteSpace=wrap;html=1;fontStyle=1;fontSize=20;" parent="1" vertex="1">
          <mxGeometry x="290" y="60" width="120" height="60" as="geometry" />
        </mxCell>
        <mxCell id="AfusonKI7kDfvAHBZVMs-5" value="" style="edgeStyle=orthogonalEdgeStyle;rounded=0;orthogonalLoop=1;jettySize=auto;html=1;fontStyle=1;fontSize=20;" parent="1" source="AfusonKI7kDfvAHBZVMs-2" target="AfusonKI7kDfvAHBZVMs-4" edge="1">
          <mxGeometry relative="1" as="geometry" />
        </mxCell>
        <mxCell id="AfusonKI7kDfvAHBZVMs-2" value="Init Log" style="rounded=0;whiteSpace=wrap;html=1;fontStyle=1;fontSize=20;" parent="1" vertex="1">
          <mxGeometry x="290" y="200" width="120" height="60" as="geometry" />
        </mxCell>
        <mxCell id="AfusonKI7kDfvAHBZVMs-7" value="" style="edgeStyle=orthogonalEdgeStyle;rounded=0;orthogonalLoop=1;jettySize=auto;html=1;fontStyle=1;fontSize=20;" parent="1" source="AfusonKI7kDfvAHBZVMs-4" target="AfusonKI7kDfvAHBZVMs-6" edge="1">
          <mxGeometry relative="1" as="geometry" />
        </mxCell>
        <mxCell id="AfusonKI7kDfvAHBZVMs-29" style="edgeStyle=orthogonalEdgeStyle;rounded=0;orthogonalLoop=1;jettySize=auto;html=1;entryX=0;entryY=0.5;entryDx=0;entryDy=0;exitX=0.75;exitY=0;exitDx=0;exitDy=0;fontStyle=1;fontSize=20;" parent="1" source="AfusonKI7kDfvAHBZVMs-4" target="AfusonKI7kDfvAHBZVMs-40" edge="1">
          <mxGeometry relative="1" as="geometry">
            <mxPoint x="480" y="100" as="targetPoint" />
            <Array as="points">
              <mxPoint x="380" y="300" />
              <mxPoint x="430" y="300" />
              <mxPoint x="430" y="90" />
            </Array>
          </mxGeometry>
        </mxCell>
        <mxCell id="AfusonKI7kDfvAHBZVMs-4" value="Create Application" style="rounded=0;whiteSpace=wrap;html=1;fontStyle=1;fontSize=20;" parent="1" vertex="1">
          <mxGeometry x="290" y="680" width="120" height="60" as="geometry" />
        </mxCell>
        <mxCell id="AfusonKI7kDfvAHBZVMs-9" value="" style="edgeStyle=orthogonalEdgeStyle;rounded=0;orthogonalLoop=1;jettySize=auto;html=1;fontStyle=1;fontSize=20;" parent="1" source="AfusonKI7kDfvAHBZVMs-6" target="AfusonKI7kDfvAHBZVMs-8" edge="1">
          <mxGeometry relative="1" as="geometry" />
        </mxCell>
        <mxCell id="AfusonKI7kDfvAHBZVMs-51" value="" style="edgeStyle=orthogonalEdgeStyle;rounded=0;orthogonalLoop=1;jettySize=auto;html=1;fontStyle=1;fontSize=20;" parent="1" source="AfusonKI7kDfvAHBZVMs-6" target="AfusonKI7kDfvAHBZVMs-50" edge="1">
          <mxGeometry relative="1" as="geometry" />
        </mxCell>
        <mxCell id="AfusonKI7kDfvAHBZVMs-6" value="Run Application" style="rounded=0;whiteSpace=wrap;html=1;fontStyle=1;fontSize=20;" parent="1" vertex="1">
          <mxGeometry x="290" y="820" width="120" height="60" as="geometry" />
        </mxCell>
        <mxCell id="AfusonKI7kDfvAHBZVMs-13" value="" style="edgeStyle=orthogonalEdgeStyle;rounded=0;orthogonalLoop=1;jettySize=auto;html=1;fontStyle=1;fontSize=20;" parent="1" source="AfusonKI7kDfvAHBZVMs-10" target="AfusonKI7kDfvAHBZVMs-12" edge="1">
          <mxGeometry relative="1" as="geometry" />
        </mxCell>
        <mxCell id="AfusonKI7kDfvAHBZVMs-15" value="" style="edgeStyle=orthogonalEdgeStyle;rounded=0;orthogonalLoop=1;jettySize=auto;html=1;entryX=0.5;entryY=0;entryDx=0;entryDy=0;fontStyle=1;fontSize=20;" parent="1" source="AfusonKI7kDfvAHBZVMs-10" target="AfusonKI7kDfvAHBZVMs-14" edge="1">
          <mxGeometry relative="1" as="geometry">
            <Array as="points">
              <mxPoint x="540" y="480" />
              <mxPoint x="960" y="480" />
            </Array>
          </mxGeometry>
        </mxCell>
        <mxCell id="AfusonKI7kDfvAHBZVMs-10" value="New Sandbox3D Layer" style="rounded=0;whiteSpace=wrap;html=1;fontStyle=1;fontSize=20;" parent="1" vertex="1">
          <mxGeometry x="480" y="370" width="120" height="80" as="geometry" />
        </mxCell>
        <mxCell id="AfusonKI7kDfvAHBZVMs-12" value="Init Sandbox3D&amp;nbsp;" style="rounded=0;whiteSpace=wrap;html=1;fontStyle=1;fontSize=20;" parent="1" vertex="1">
          <mxGeometry x="630" y="380" width="120" height="60" as="geometry" />
        </mxCell>
        <mxCell id="AfusonKI7kDfvAHBZVMs-17" value="" style="edgeStyle=orthogonalEdgeStyle;rounded=0;orthogonalLoop=1;jettySize=auto;html=1;fontStyle=1;fontSize=20;" parent="1" source="AfusonKI7kDfvAHBZVMs-14" target="AfusonKI7kDfvAHBZVMs-16" edge="1">
          <mxGeometry relative="1" as="geometry" />
        </mxCell>
        <mxCell id="AfusonKI7kDfvAHBZVMs-19" value="" style="edgeStyle=orthogonalEdgeStyle;rounded=0;orthogonalLoop=1;jettySize=auto;html=1;fontStyle=1;fontSize=20;" parent="1" source="AfusonKI7kDfvAHBZVMs-16" target="AfusonKI7kDfvAHBZVMs-18" edge="1">
          <mxGeometry relative="1" as="geometry" />
        </mxCell>
        <mxCell id="AfusonKI7kDfvAHBZVMs-16" value="Attach Sandbox3D Layer" style="rounded=0;whiteSpace=wrap;html=1;fontStyle=1;fontSize=20;" parent="1" vertex="1">
          <mxGeometry x="1200" y="510" width="220" height="60" as="geometry" />
        </mxCell>
        <mxCell id="AfusonKI7kDfvAHBZVMs-21" value="" style="edgeStyle=orthogonalEdgeStyle;rounded=0;orthogonalLoop=1;jettySize=auto;html=1;fontStyle=1;fontSize=20;" parent="1" source="AfusonKI7kDfvAHBZVMs-18" target="AfusonKI7kDfvAHBZVMs-20" edge="1">
          <mxGeometry relative="1" as="geometry" />
        </mxCell>
        <mxCell id="AfusonKI7kDfvAHBZVMs-18" value="Load Randering Data" style="rounded=0;whiteSpace=wrap;html=1;fontStyle=1;fontSize=20;" parent="1" vertex="1">
          <mxGeometry x="1460" y="500" width="120" height="80" as="geometry" />
        </mxCell>
        <mxCell id="AfusonKI7kDfvAHBZVMs-49" style="edgeStyle=orthogonalEdgeStyle;rounded=0;orthogonalLoop=1;jettySize=auto;html=1;entryX=1;entryY=0.5;entryDx=0;entryDy=0;fontStyle=1;fontSize=20;" parent="1" source="AfusonKI7kDfvAHBZVMs-20" target="AfusonKI7kDfvAHBZVMs-4" edge="1">
          <mxGeometry relative="1" as="geometry" />
        </mxCell>
        <mxCell id="AfusonKI7kDfvAHBZVMs-46" style="edgeStyle=orthogonalEdgeStyle;rounded=0;orthogonalLoop=1;jettySize=auto;html=1;entryX=0;entryY=0.5;entryDx=0;entryDy=0;fontStyle=1;fontSize=20;" parent="1" source="AfusonKI7kDfvAHBZVMs-40" target="AfusonKI7kDfvAHBZVMs-42" edge="1">
          <mxGeometry relative="1" as="geometry" />
        </mxCell>
        <mxCell id="AfusonKI7kDfvAHBZVMs-48" style="edgeStyle=orthogonalEdgeStyle;rounded=0;orthogonalLoop=1;jettySize=auto;html=1;entryX=0.5;entryY=0;entryDx=0;entryDy=0;fontStyle=1;fontSize=20;" parent="1" source="AfusonKI7kDfvAHBZVMs-40" target="AfusonKI7kDfvAHBZVMs-10" edge="1">
          <mxGeometry relative="1" as="geometry">
            <mxPoint x="570" y="360" as="targetPoint" />
            <Array as="points" />
          </mxGeometry>
        </mxCell>
        <mxCell id="AfusonKI7kDfvAHBZVMs-40" value="Init Application" style="rounded=0;whiteSpace=wrap;html=1;fontStyle=1;fontSize=20;" parent="1" vertex="1">
          <mxGeometry x="480" y="60" width="120" height="60" as="geometry" />
        </mxCell>
        <mxCell id="AfusonKI7kDfvAHBZVMs-41" value="" style="edgeStyle=orthogonalEdgeStyle;rounded=0;orthogonalLoop=1;jettySize=auto;html=1;fontStyle=1;fontSize=20;" parent="1" source="AfusonKI7kDfvAHBZVMs-42" target="AfusonKI7kDfvAHBZVMs-44" edge="1">
          <mxGeometry relative="1" as="geometry" />
        </mxCell>
        <mxCell id="AfusonKI7kDfvAHBZVMs-42" value="Init Window" style="rounded=0;whiteSpace=wrap;html=1;fontStyle=1;fontSize=20;" parent="1" vertex="1">
          <mxGeometry x="670" y="60" width="120" height="60" as="geometry" />
        </mxCell>
        <mxCell id="AfusonKI7kDfvAHBZVMs-43" value="" style="edgeStyle=orthogonalEdgeStyle;rounded=0;orthogonalLoop=1;jettySize=auto;html=1;fontStyle=1;fontSize=20;" parent="1" source="AfusonKI7kDfvAHBZVMs-44" target="AfusonKI7kDfvAHBZVMs-45" edge="1">
          <mxGeometry relative="1" as="geometry">
            <Array as="points">
              <mxPoint x="730" y="300" />
            </Array>
          </mxGeometry>
        </mxCell>
        <mxCell id="AfusonKI7kDfvAHBZVMs-44" value="Set Event Callback" style="rounded=0;whiteSpace=wrap;html=1;fontStyle=1;fontSize=20;" parent="1" vertex="1">
          <mxGeometry x="670" y="150" width="120" height="60" as="geometry" />
        </mxCell>
        <mxCell id="AfusonKI7kDfvAHBZVMs-47" style="edgeStyle=orthogonalEdgeStyle;rounded=0;orthogonalLoop=1;jettySize=auto;html=1;entryX=1;entryY=0.75;entryDx=0;entryDy=0;fontStyle=1;fontSize=20;" parent="1" source="AfusonKI7kDfvAHBZVMs-45" target="AfusonKI7kDfvAHBZVMs-40" edge="1">
          <mxGeometry relative="1" as="geometry">
            <Array as="points">
              <mxPoint x="950" y="350" />
              <mxPoint x="630" y="350" />
              <mxPoint x="630" y="105" />
            </Array>
          </mxGeometry>
        </mxCell>
        <mxCell id="AfusonKI7kDfvAHBZVMs-53" value="" style="edgeStyle=orthogonalEdgeStyle;rounded=0;orthogonalLoop=1;jettySize=auto;html=1;exitX=0.5;exitY=1;exitDx=0;exitDy=0;fontStyle=1;fontSize=20;" parent="1" source="AfusonKI7kDfvAHBZVMs-50" target="AfusonKI7kDfvAHBZVMs-52" edge="1">
          <mxGeometry relative="1" as="geometry" />
        </mxCell>
        <mxCell id="AfusonKI7kDfvAHBZVMs-50" value="Calculate delta Time" style="rounded=0;whiteSpace=wrap;html=1;fontStyle=1;fontSize=20;" parent="1" vertex="1">
          <mxGeometry x="600" y="820" width="120" height="60" as="geometry" />
        </mxCell>
        <mxCell id="AfusonKI7kDfvAHBZVMs-84" value="" style="edgeStyle=orthogonalEdgeStyle;rounded=0;orthogonalLoop=1;jettySize=auto;html=1;fontStyle=1;fontSize=20;" parent="1" source="AfusonKI7kDfvAHBZVMs-52" target="AfusonKI7kDfvAHBZVMs-83" edge="1">
          <mxGeometry relative="1" as="geometry" />
        </mxCell>
        <mxCell id="AfusonKI7kDfvAHBZVMs-60" value="" style="edgeStyle=orthogonalEdgeStyle;rounded=0;orthogonalLoop=1;jettySize=auto;html=1;exitX=1;exitY=0.25;exitDx=0;exitDy=0;fontStyle=1;fontSize=20;" parent="1" target="AfusonKI7kDfvAHBZVMs-59" edge="1" source="AfusonKI7kDfvAHBZVMs-54">
          <mxGeometry relative="1" as="geometry">
            <mxPoint x="880" y="940" as="sourcePoint" />
            <Array as="points">
              <mxPoint x="1100" y="930" />
              <mxPoint x="1250" y="930" />
              <mxPoint x="1250" y="890" />
            </Array>
          </mxGeometry>
        </mxCell>
        <mxCell id="AfusonKI7kDfvAHBZVMs-71" style="edgeStyle=orthogonalEdgeStyle;rounded=0;orthogonalLoop=1;jettySize=auto;html=1;entryX=0.5;entryY=0;entryDx=0;entryDy=0;fontStyle=1;fontSize=20;" parent="1" source="AfusonKI7kDfvAHBZVMs-54" target="AfusonKI7kDfvAHBZVMs-70" edge="1">
          <mxGeometry relative="1" as="geometry">
            <Array as="points">
              <mxPoint x="1230" y="960" />
              <mxPoint x="1230" y="1200" />
              <mxPoint x="1350" y="1200" />
            </Array>
          </mxGeometry>
        </mxCell>
        <mxCell id="AfusonKI7kDfvAHBZVMs-80" value="" style="edgeStyle=orthogonalEdgeStyle;rounded=0;orthogonalLoop=1;jettySize=auto;html=1;fontStyle=1;fontSize=20;" parent="1" source="AfusonKI7kDfvAHBZVMs-56" target="AfusonKI7kDfvAHBZVMs-79" edge="1">
          <mxGeometry relative="1" as="geometry" />
        </mxCell>
        <mxCell id="AfusonKI7kDfvAHBZVMs-62" value="" style="edgeStyle=orthogonalEdgeStyle;rounded=0;orthogonalLoop=1;jettySize=auto;html=1;fontStyle=1;fontSize=20;" parent="1" source="AfusonKI7kDfvAHBZVMs-59" target="AfusonKI7kDfvAHBZVMs-61" edge="1">
          <mxGeometry relative="1" as="geometry" />
        </mxCell>
        <mxCell id="AfusonKI7kDfvAHBZVMs-68" value="" style="edgeStyle=orthogonalEdgeStyle;rounded=0;orthogonalLoop=1;jettySize=auto;html=1;fontStyle=1;fontSize=20;" parent="1" source="AfusonKI7kDfvAHBZVMs-59" target="AfusonKI7kDfvAHBZVMs-61" edge="1">
          <mxGeometry relative="1" as="geometry" />
        </mxCell>
        <mxCell id="AfusonKI7kDfvAHBZVMs-59" value="Update Scene" style="rounded=0;whiteSpace=wrap;html=1;fontStyle=1;fontSize=20;" parent="1" vertex="1">
          <mxGeometry x="1660" y="860" width="120" height="60" as="geometry" />
        </mxCell>
        <mxCell id="AfusonKI7kDfvAHBZVMs-67" style="edgeStyle=orthogonalEdgeStyle;rounded=0;orthogonalLoop=1;jettySize=auto;html=1;entryX=1.001;entryY=0.399;entryDx=0;entryDy=0;exitX=0.5;exitY=1;exitDx=0;exitDy=0;fontStyle=1;fontSize=20;entryPerimeter=0;" parent="1" source="AfusonKI7kDfvAHBZVMs-61" target="AfusonKI7kDfvAHBZVMs-54" edge="1">
          <mxGeometry relative="1" as="geometry">
            <Array as="points">
              <mxPoint x="1720" y="1050" />
              <mxPoint x="1250" y="1050" />
              <mxPoint x="1250" y="946" />
            </Array>
          </mxGeometry>
        </mxCell>
        <mxCell id="AfusonKI7kDfvAHBZVMs-61" value="Draw each Entity" style="rounded=0;whiteSpace=wrap;html=1;fontStyle=1;fontSize=20;" parent="1" vertex="1">
          <mxGeometry x="1660" y="970" width="120" height="60" as="geometry" />
        </mxCell>
        <mxCell id="AfusonKI7kDfvAHBZVMs-73" value="" style="edgeStyle=orthogonalEdgeStyle;rounded=0;orthogonalLoop=1;jettySize=auto;html=1;fontStyle=1;fontSize=20;" parent="1" source="AfusonKI7kDfvAHBZVMs-70" target="AfusonKI7kDfvAHBZVMs-72" edge="1">
          <mxGeometry relative="1" as="geometry" />
        </mxCell>
        <mxCell id="AfusonKI7kDfvAHBZVMs-78" value="" style="edgeStyle=orthogonalEdgeStyle;rounded=0;orthogonalLoop=1;jettySize=auto;html=1;fontStyle=1;fontSize=20;" parent="1" source="AfusonKI7kDfvAHBZVMs-70" target="AfusonKI7kDfvAHBZVMs-77" edge="1">
          <mxGeometry relative="1" as="geometry" />
        </mxCell>
        <mxCell id="AfusonKI7kDfvAHBZVMs-70" value="Update ImGui" style="rounded=0;whiteSpace=wrap;html=1;fontStyle=1;fontSize=20;" parent="1" vertex="1">
          <mxGeometry x="1290" y="1225" width="120" height="60" as="geometry" />
        </mxCell>
        <mxCell id="AfusonKI7kDfvAHBZVMs-75" value="" style="edgeStyle=orthogonalEdgeStyle;rounded=0;orthogonalLoop=1;jettySize=auto;html=1;fontStyle=1;fontSize=20;" parent="1" source="AfusonKI7kDfvAHBZVMs-72" target="AfusonKI7kDfvAHBZVMs-74" edge="1">
          <mxGeometry relative="1" as="geometry" />
        </mxCell>
        <mxCell id="AfusonKI7kDfvAHBZVMs-72" value="Draw&amp;nbsp;Scene Hierarchy Panel" style="rounded=0;whiteSpace=wrap;html=1;fontStyle=1;fontSize=20;" parent="1" vertex="1">
          <mxGeometry x="1660" y="1220" width="120" height="65" as="geometry" />
        </mxCell>
        <mxCell id="AfusonKI7kDfvAHBZVMs-76" style="edgeStyle=orthogonalEdgeStyle;rounded=0;orthogonalLoop=1;jettySize=auto;html=1;entryX=1;entryY=0.75;entryDx=0;entryDy=0;fontStyle=1;fontSize=20;" parent="1" source="AfusonKI7kDfvAHBZVMs-74" target="AfusonKI7kDfvAHBZVMs-70" edge="1">
          <mxGeometry relative="1" as="geometry" />
        </mxCell>
        <mxCell id="AfusonKI7kDfvAHBZVMs-74" value="Draw each Component Propties" style="rounded=0;whiteSpace=wrap;html=1;fontStyle=1;fontSize=20;" parent="1" vertex="1">
          <mxGeometry x="1660" y="1360" width="120" height="70" as="geometry" />
        </mxCell>
        <mxCell id="D1_QNNf7dY5p6VzvvArW-14" style="edgeStyle=orthogonalEdgeStyle;rounded=0;orthogonalLoop=1;jettySize=auto;html=1;fontStyle=1;fontSize=20;" edge="1" parent="1" source="AfusonKI7kDfvAHBZVMs-77">
          <mxGeometry relative="1" as="geometry">
            <Array as="points">
              <mxPoint x="1210" y="1395" />
              <mxPoint x="1210" y="990" />
              <mxPoint x="1100" y="990" />
            </Array>
            <mxPoint x="1100" y="990" as="targetPoint" />
          </mxGeometry>
        </mxCell>
        <mxCell id="AfusonKI7kDfvAHBZVMs-77" value="Update ViewPort" style="rounded=0;whiteSpace=wrap;html=1;fontStyle=1;fontSize=20;" parent="1" vertex="1">
          <mxGeometry x="1290" y="1365" width="120" height="60" as="geometry" />
        </mxCell>
        <mxCell id="D1_QNNf7dY5p6VzvvArW-16" style="edgeStyle=orthogonalEdgeStyle;rounded=0;orthogonalLoop=1;jettySize=auto;html=1;entryX=0.5;entryY=1;entryDx=0;entryDy=0;fontStyle=1;fontSize=20;" edge="1" parent="1" source="AfusonKI7kDfvAHBZVMs-79" target="AfusonKI7kDfvAHBZVMs-56">
          <mxGeometry relative="1" as="geometry">
            <mxPoint x="990" y="1590" as="targetPoint" />
            <Array as="points">
              <mxPoint x="1241" y="1560" />
              <mxPoint x="1020" y="1560" />
            </Array>
          </mxGeometry>
        </mxCell>
        <mxCell id="AfusonKI7kDfvAHBZVMs-85" style="edgeStyle=orthogonalEdgeStyle;rounded=0;orthogonalLoop=1;jettySize=auto;html=1;entryX=1;entryY=0.75;entryDx=0;entryDy=0;fontStyle=1;fontSize=20;" parent="1" source="AfusonKI7kDfvAHBZVMs-83" target="AfusonKI7kDfvAHBZVMs-6" edge="1">
          <mxGeometry relative="1" as="geometry">
            <Array as="points">
              <mxPoint x="490" y="865" />
            </Array>
          </mxGeometry>
        </mxCell>
        <mxCell id="AfusonKI7kDfvAHBZVMs-83" value="Update Window" style="rounded=0;whiteSpace=wrap;html=1;fontStyle=1;fontSize=20;" parent="1" vertex="1">
          <mxGeometry x="590" y="1460" width="120" height="60" as="geometry" />
        </mxCell>
        <mxCell id="D1_QNNf7dY5p6VzvvArW-1" style="edgeStyle=orthogonalEdgeStyle;rounded=0;orthogonalLoop=1;jettySize=auto;html=1;fontStyle=1;fontSize=20;" edge="1" parent="1" source="AfusonKI7kDfvAHBZVMs-86" target="AfusonKI7kDfvAHBZVMs-91">
          <mxGeometry relative="1" as="geometry">
            <Array as="points">
              <mxPoint x="2180" y="840" />
              <mxPoint x="2180" y="920" />
              <mxPoint x="2040" y="920" />
            </Array>
          </mxGeometry>
        </mxCell>
        <mxCell id="D1_QNNf7dY5p6VzvvArW-3" value="" style="edgeStyle=orthogonalEdgeStyle;rounded=0;orthogonalLoop=1;jettySize=auto;html=1;fontStyle=1;fontSize=20;" edge="1" parent="1" source="AfusonKI7kDfvAHBZVMs-91" target="D1_QNNf7dY5p6VzvvArW-2">
          <mxGeometry relative="1" as="geometry" />
        </mxCell>
        <mxCell id="AfusonKI7kDfvAHBZVMs-91" value="Event" style="rounded=0;whiteSpace=wrap;html=1;fontStyle=1;fontSize=20;" parent="1" vertex="1">
          <mxGeometry x="1980" y="990" width="120" height="60" as="geometry" />
        </mxCell>
        <mxCell id="D1_QNNf7dY5p6VzvvArW-5" value="" style="edgeStyle=orthogonalEdgeStyle;rounded=0;orthogonalLoop=1;jettySize=auto;html=1;fontStyle=1;fontSize=20;" edge="1" parent="1" source="D1_QNNf7dY5p6VzvvArW-2" target="D1_QNNf7dY5p6VzvvArW-4">
          <mxGeometry relative="1" as="geometry" />
        </mxCell>
        <mxCell id="D1_QNNf7dY5p6VzvvArW-2" value="Dispatch Event&amp;nbsp;" style="rounded=0;whiteSpace=wrap;html=1;fontStyle=1;fontSize=20;" vertex="1" parent="1">
          <mxGeometry x="1980" y="1130" width="120" height="60" as="geometry" />
        </mxCell>
        <mxCell id="D1_QNNf7dY5p6VzvvArW-7" value="Event System" style="swimlane;whiteSpace=wrap;html=1;startSize=40;fontStyle=1;fontSize=20;strokeWidth=4;" vertex="1" parent="1">
          <mxGeometry x="1940" y="220" width="200" height="1370" as="geometry" />
        </mxCell>
        <mxCell id="D1_QNNf7dY5p6VzvvArW-4" value="OnEvent" style="rounded=0;whiteSpace=wrap;html=1;fontStyle=1;fontSize=20;" vertex="1" parent="D1_QNNf7dY5p6VzvvArW-7">
          <mxGeometry x="40" y="1050" width="120" height="60" as="geometry" />
        </mxCell>
        <mxCell id="D1_QNNf7dY5p6VzvvArW-8" value="User Input" style="swimlane;whiteSpace=wrap;html=1;fontStyle=1;fontSize=20;strokeWidth=4;startSize=40;" vertex="1" parent="1">
          <mxGeometry x="2220" y="220" width="200" height="1370" as="geometry" />
        </mxCell>
        <mxCell id="D1_QNNf7dY5p6VzvvArW-30" value="Keyboard Input" style="rounded=0;whiteSpace=wrap;html=1;fontStyle=1;fontSize=20;" vertex="1" parent="D1_QNNf7dY5p6VzvvArW-8">
          <mxGeometry x="50" y="760" width="130" height="60" as="geometry" />
        </mxCell>
        <mxCell id="AfusonKI7kDfvAHBZVMs-86" value="Mouse Input" style="rounded=0;whiteSpace=wrap;html=1;fontStyle=1;fontSize=20;" parent="D1_QNNf7dY5p6VzvvArW-8" vertex="1">
          <mxGeometry x="50" y="590" width="130" height="60" as="geometry" />
        </mxCell>
        <mxCell id="D1_QNNf7dY5p6VzvvArW-17" value="Layer system" style="swimlane;whiteSpace=wrap;html=1;fontStyle=1;fontSize=20;strokeWidth=4;startSize=40;" vertex="1" parent="1">
          <mxGeometry x="770" y="220" width="370" height="1370" as="geometry" />
        </mxCell>
        <mxCell id="AfusonKI7kDfvAHBZVMs-54" value="Update Sandbox3D Layer" style="rounded=0;whiteSpace=wrap;html=1;fontStyle=1;fontSize=20;" parent="D1_QNNf7dY5p6VzvvArW-17" vertex="1">
          <mxGeometry x="200" y="690" width="130" height="90" as="geometry" />
        </mxCell>
        <mxCell id="AfusonKI7kDfvAHBZVMs-56" value="Update ImGuiDemo Layer" style="rounded=0;whiteSpace=wrap;html=1;fontStyle=1;fontSize=20;" parent="D1_QNNf7dY5p6VzvvArW-17" vertex="1">
          <mxGeometry x="190" y="1220" width="120" height="80" as="geometry" />
        </mxCell>
        <mxCell id="D1_QNNf7dY5p6VzvvArW-13" style="edgeStyle=orthogonalEdgeStyle;rounded=0;orthogonalLoop=1;jettySize=auto;html=1;fontStyle=1;fontSize=20;exitX=0.5;exitY=1;exitDx=0;exitDy=0;" edge="1" parent="D1_QNNf7dY5p6VzvvArW-17" source="AfusonKI7kDfvAHBZVMs-54" target="AfusonKI7kDfvAHBZVMs-56">
          <mxGeometry relative="1" as="geometry">
            <Array as="points">
              <mxPoint x="265" y="1110" />
              <mxPoint x="265" y="1110" />
            </Array>
            <mxPoint x="270" y="800" as="sourcePoint" />
          </mxGeometry>
        </mxCell>
        <mxCell id="AfusonKI7kDfvAHBZVMs-52" value="Update each Layer" style="rounded=0;whiteSpace=wrap;html=1;fontStyle=1;fontSize=20;" parent="D1_QNNf7dY5p6VzvvArW-17" vertex="1">
          <mxGeometry x="20" y="760" width="120" height="60" as="geometry" />
        </mxCell>
        <mxCell id="AfusonKI7kDfvAHBZVMs-65" style="edgeStyle=orthogonalEdgeStyle;rounded=0;orthogonalLoop=1;jettySize=auto;html=1;entryX=0;entryY=0.5;entryDx=0;entryDy=0;fontStyle=1;fontSize=20;" parent="D1_QNNf7dY5p6VzvvArW-17" source="AfusonKI7kDfvAHBZVMs-52" target="AfusonKI7kDfvAHBZVMs-54" edge="1">
          <mxGeometry relative="1" as="geometry" />
        </mxCell>
        <mxCell id="AfusonKI7kDfvAHBZVMs-66" style="edgeStyle=orthogonalEdgeStyle;rounded=0;orthogonalLoop=1;jettySize=auto;html=1;entryX=1;entryY=0.75;entryDx=0;entryDy=0;fontStyle=1;fontSize=20;" parent="D1_QNNf7dY5p6VzvvArW-17" source="AfusonKI7kDfvAHBZVMs-56" target="AfusonKI7kDfvAHBZVMs-52" edge="1">
          <mxGeometry relative="1" as="geometry" />
        </mxCell>
        <mxCell id="AfusonKI7kDfvAHBZVMs-14" value="Push Sandbox3D Layer" style="rounded=0;whiteSpace=wrap;html=1;fontStyle=1;fontSize=20;" parent="D1_QNNf7dY5p6VzvvArW-17" vertex="1">
          <mxGeometry x="130" y="290" width="120" height="60" as="geometry" />
        </mxCell>
        <mxCell id="AfusonKI7kDfvAHBZVMs-45" value="Push ImGuiDemo&amp;nbsp;Layer" style="rounded=0;whiteSpace=wrap;html=1;fontStyle=1;fontSize=20;" parent="D1_QNNf7dY5p6VzvvArW-17" vertex="1">
          <mxGeometry x="130" y="50" width="120" height="60" as="geometry" />
        </mxCell>
        <mxCell id="BAPT7NLRmtDBVAtJ-wS6-1" style="edgeStyle=orthogonalEdgeStyle;rounded=0;orthogonalLoop=1;jettySize=auto;html=1;exitX=0.5;exitY=1;exitDx=0;exitDy=0;entryX=0.5;entryY=1;entryDx=0;entryDy=0;" edge="1" parent="D1_QNNf7dY5p6VzvvArW-17" source="AfusonKI7kDfvAHBZVMs-54" target="AfusonKI7kDfvAHBZVMs-54">
          <mxGeometry relative="1" as="geometry">
            <Array as="points" />
          </mxGeometry>
        </mxCell>
        <mxCell id="D1_QNNf7dY5p6VzvvArW-27" value="Entry Point" style="swimlane;whiteSpace=wrap;html=1;fontStyle=1;fontSize=20;strokeWidth=4;startSize=40;" vertex="1" parent="1">
          <mxGeometry x="250" y="-10" width="200" height="1600" as="geometry" />
        </mxCell>
        <mxCell id="AfusonKI7kDfvAHBZVMs-8" value="Delete Application" style="rounded=0;whiteSpace=wrap;html=1;fontStyle=1;fontSize=20;" parent="D1_QNNf7dY5p6VzvvArW-27" vertex="1">
          <mxGeometry x="40" y="1470" width="120" height="60" as="geometry" />
        </mxCell>
        <mxCell id="D1_QNNf7dY5p6VzvvArW-28" value="Entity-Component-System" style="swimlane;whiteSpace=wrap;html=1;fontStyle=1;fontSize=20;strokeWidth=4;startSize=40;" vertex="1" parent="1">
          <mxGeometry x="1430" y="610" width="430" height="850" as="geometry" />
        </mxCell>
        <mxCell id="D1_QNNf7dY5p6VzvvArW-29" value="Rendering" style="swimlane;whiteSpace=wrap;html=1;fontStyle=1;fontSize=20;strokeWidth=4;startSize=40;" vertex="1" parent="1">
          <mxGeometry x="1160" y="220" width="740" height="1370" as="geometry" />
        </mxCell>
        <mxCell id="AfusonKI7kDfvAHBZVMs-20" value="Init Scene" style="rounded=0;whiteSpace=wrap;html=1;fontStyle=1;fontSize=20;" parent="D1_QNNf7dY5p6VzvvArW-29" vertex="1">
          <mxGeometry x="300" y="490" width="120" height="60" as="geometry" />
        </mxCell>
        <mxCell id="AfusonKI7kDfvAHBZVMs-28" style="edgeStyle=orthogonalEdgeStyle;rounded=0;orthogonalLoop=1;jettySize=auto;html=1;entryX=1;entryY=0.75;entryDx=0;entryDy=0;fontStyle=1;fontSize=20;" parent="D1_QNNf7dY5p6VzvvArW-29" source="AfusonKI7kDfvAHBZVMs-24" target="AfusonKI7kDfvAHBZVMs-20" edge="1">
          <mxGeometry relative="1" as="geometry" />
        </mxCell>
        <mxCell id="AfusonKI7kDfvAHBZVMs-24" value="Add default Component to Entity" style="rounded=0;whiteSpace=wrap;html=1;fontStyle=1;fontSize=20;" parent="D1_QNNf7dY5p6VzvvArW-29" vertex="1">
          <mxGeometry x="500" y="540" width="120" height="70" as="geometry" />
        </mxCell>
        <mxCell id="AfusonKI7kDfvAHBZVMs-22" value="Add default Entity to Scene" style="rounded=0;whiteSpace=wrap;html=1;fontStyle=1;fontSize=20;" parent="D1_QNNf7dY5p6VzvvArW-29" vertex="1">
          <mxGeometry x="500" y="450" width="120" height="70" as="geometry" />
        </mxCell>
        <mxCell id="AfusonKI7kDfvAHBZVMs-23" value="" style="edgeStyle=orthogonalEdgeStyle;rounded=0;orthogonalLoop=1;jettySize=auto;html=1;fontStyle=1;fontSize=20;" parent="D1_QNNf7dY5p6VzvvArW-29" source="AfusonKI7kDfvAHBZVMs-20" target="AfusonKI7kDfvAHBZVMs-22" edge="1">
          <mxGeometry relative="1" as="geometry" />
        </mxCell>
        <mxCell id="AfusonKI7kDfvAHBZVMs-25" value="" style="edgeStyle=orthogonalEdgeStyle;rounded=0;orthogonalLoop=1;jettySize=auto;html=1;fontStyle=1;fontSize=20;" parent="D1_QNNf7dY5p6VzvvArW-29" source="AfusonKI7kDfvAHBZVMs-22" target="AfusonKI7kDfvAHBZVMs-24" edge="1">
          <mxGeometry relative="1" as="geometry" />
        </mxCell>
        <mxCell id="AfusonKI7kDfvAHBZVMs-79" value="Draw ImGuiDemo" style="rounded=0;whiteSpace=wrap;html=1;fontStyle=1;fontSize=20;" parent="D1_QNNf7dY5p6VzvvArW-29" vertex="1">
          <mxGeometry x="21" y="1230" width="120" height="60" as="geometry" />
        </mxCell>
        <mxCell id="D1_QNNf7dY5p6VzvvArW-31" style="edgeStyle=orthogonalEdgeStyle;rounded=0;orthogonalLoop=1;jettySize=auto;html=1;entryX=0.5;entryY=0;entryDx=0;entryDy=0;fontStyle=1;fontSize=20;" edge="1" parent="1" source="D1_QNNf7dY5p6VzvvArW-30" target="AfusonKI7kDfvAHBZVMs-91">
          <mxGeometry relative="1" as="geometry">
            <Array as="points">
              <mxPoint x="2180" y="1010" />
              <mxPoint x="2180" y="920" />
              <mxPoint x="2040" y="920" />
            </Array>
          </mxGeometry>
        </mxCell>
        <mxCell id="D1_QNNf7dY5p6VzvvArW-32" style="edgeStyle=orthogonalEdgeStyle;rounded=0;orthogonalLoop=1;jettySize=auto;html=1;entryX=1;entryY=0.5;entryDx=0;entryDy=0;fontSize=20;" edge="1" parent="1" source="D1_QNNf7dY5p6VzvvArW-4" target="AfusonKI7kDfvAHBZVMs-74">
          <mxGeometry relative="1" as="geometry" />
        </mxCell>
        <mxCell id="D1_QNNf7dY5p6VzvvArW-33" style="edgeStyle=orthogonalEdgeStyle;rounded=0;orthogonalLoop=1;jettySize=auto;html=1;entryX=1;entryY=0.5;entryDx=0;entryDy=0;fontSize=20;" edge="1" parent="1" source="D1_QNNf7dY5p6VzvvArW-4" target="AfusonKI7kDfvAHBZVMs-72">
          <mxGeometry relative="1" as="geometry" />
        </mxCell>
        <mxCell id="D1_QNNf7dY5p6VzvvArW-34" style="edgeStyle=orthogonalEdgeStyle;rounded=0;orthogonalLoop=1;jettySize=auto;html=1;entryX=1;entryY=0.5;entryDx=0;entryDy=0;fontSize=20;" edge="1" parent="1" source="D1_QNNf7dY5p6VzvvArW-4" target="AfusonKI7kDfvAHBZVMs-59">
          <mxGeometry relative="1" as="geometry" />
        </mxCell>
        <mxCell id="D1_QNNf7dY5p6VzvvArW-35" style="edgeStyle=orthogonalEdgeStyle;rounded=0;orthogonalLoop=1;jettySize=auto;html=1;entryX=1;entryY=0.5;entryDx=0;entryDy=0;fontSize=20;" edge="1" parent="1" source="D1_QNNf7dY5p6VzvvArW-4" target="AfusonKI7kDfvAHBZVMs-79">
          <mxGeometry relative="1" as="geometry">
            <Array as="points">
              <mxPoint x="1880" y="1300" />
              <mxPoint x="1880" y="1480" />
            </Array>
          </mxGeometry>
        </mxCell>
        <mxCell id="D1_QNNf7dY5p6VzvvArW-36" style="edgeStyle=orthogonalEdgeStyle;rounded=0;orthogonalLoop=1;jettySize=auto;html=1;entryX=1;entryY=0.5;entryDx=0;entryDy=0;fontSize=20;" edge="1" parent="1" source="D1_QNNf7dY5p6VzvvArW-4" target="AfusonKI7kDfvAHBZVMs-44">
          <mxGeometry relative="1" as="geometry">
            <Array as="points">
              <mxPoint x="1920" y="1300" />
              <mxPoint x="1920" y="180" />
            </Array>
          </mxGeometry>
        </mxCell>
      </root>
    </mxGraphModel>
  </diagram>
</mxfile>
